# xmcd CD database file
# Copyright (C) 1993-1998 Ti Kan
# 
# Track frame offsets:
#     150
#     8365
#     17592
#     28272
#     36492
#     49837
#     61705
#     67690
#     78587
#     88915
#     96287
#     107175
#     117432
#     125417
#     136070
#     147207
#     159515
#     173100
#     183275
#     197047
#     207605
#     219272
#     227677
#     238035
#     247717
#     255455
#     263482
# 
# Disc length: 3647 seconds
# 
# Revision: 1
# Processed by: cddbd v1.4b41PL1 Copyright (c) Steve Scherf et al.
# Submitted via: DiscPlay 4.0.4
# 
DISCID=690e3d1b
DTITLE=Frank Sinatra - Members Edition
DYEAR=1900
DGENRE=
TTITLE0=Tenderly
TTITLE1=I'm in the Mood for Love
TTITLE2=Night and Day
TTITLE3=Little White Lies
TTITLE4=Don't Forget Tomorrow
TTITLE5=It Only Happens When I Dance With You
TTITLE6=Hair of Gold, Eyes of Pale Blue
TTITLE7=Haunted Heart
TTITLE8=Speak Low
TTITLE9=You're the Top
TTITLE10=My Shining Hour
TTITLE11=One Hundred Years From Today
TTITLE12=The Right Kind Of Love
TTITLE13=Now is the Hour
TTITLE14=That's My Affair
TTITLE15=I Don't Believe in Rumours
TTITLE16=I've Had this Feeling Before
TTITLE17=The Trolley Song
TTITLE18=With A Song in my Heart
TTITLE19=The Surrey with the Fringe on Top
TTITLE20=It's Been a Long Long Time
TTITLE21=That's For Me
TTITLE22=Candy
TTITLE23=It's Magic
TTITLE24=Every Day I Love You
TTITLE25=Maybe It's Because
TTITLE26=Lullaby of Broadway
EXTD=
EXTT0=
EXTT1=
EXTT2=
EXTT3=
EXTT4=
EXTT5=
EXTT6=
EXTT7=
EXTT8=
EXTT9=
EXTT10=
EXTT11=
EXTT12=
EXTT13=
EXTT14=
EXTT15=
EXTT16=
EXTT17=
EXTT18=
EXTT19=
EXTT20=
EXTT21=
EXTT22=
EXTT23=
EXTT24=
EXTT25=
EXTT26=
PLAYORDER=
